name GIL06_slow2.mot
datacolumns 153
datarows 4
range 0.51666677 0.54166681
endheader

                time	           pelvis_tx	           pelvis_ty	           pelvis_tz	         pelvis_tilt	         pelvis_list	     pelvis_rotation	       hip_flexion_r	     hip_adduction_r	      hip_rotation_r	        knee_angle_r	       ankle_angle_r	    subtalar_angle_r	         mtp_angle_r	       hip_flexion_l	     hip_adduction_l	      hip_rotation_l	        knee_angle_l	       ankle_angle_l	    subtalar_angle_l	         mtp_angle_l	    lumbar_extension	      lumbar_bending	     lumbar_rotation	     ground_force_vx	     ground_force_vy	     ground_force_vz	     ground_force_px	     ground_force_py	     ground_force_pz	     ground_force_vx	     ground_force_vy	     ground_force_vz	     ground_force_px	     ground_force_py	     ground_force_pz	     ground_torque_x	     ground_torque_y	     ground_torque_z	     ground_torque_x	     ground_torque_y	     ground_torque_z	    ground_marker_px	    ground_marker_py	    ground_marker_pz	    ground_marker_px	    ground_marker_py	    ground_marker_pz	    ground_marker_px	    ground_marker_py	    ground_marker_pz	    ground_marker_px	    ground_marker_py	    ground_marker_pz	    ground_marker_px	    ground_marker_py	    ground_marker_pz	    ground_marker_px	    ground_marker_py	    ground_marker_pz	    ground_marker_px	    ground_marker_py	    ground_marker_pz	    ground_marker_px	    ground_marker_py	    ground_marker_pz	    ground_marker_px	    ground_marker_py	    ground_marker_pz	    ground_marker_px	    ground_marker_py	    ground_marker_pz	    ground_marker_px	    ground_marker_py	    ground_marker_pz	    ground_marker_px	    ground_marker_py	    ground_marker_pz	    ground_marker_px	    ground_marker_py	    ground_marker_pz	    ground_marker_px	    ground_marker_py	    ground_marker_pz	    ground_marker_px	    ground_marker_py	    ground_marker_pz	    ground_marker_px	    ground_marker_py	    ground_marker_pz	    ground_marker_px	    ground_marker_py	    ground_marker_pz	    ground_marker_px	    ground_marker_py	    ground_marker_pz	    ground_marker_px	    ground_marker_py	    ground_marker_pz	    ground_marker_px	    ground_marker_py	    ground_marker_pz	    ground_marker_px	    ground_marker_py	    ground_marker_pz	    ground_marker_px	    ground_marker_py	    ground_marker_pz	    ground_marker_px	    ground_marker_py	    ground_marker_pz	    ground_marker_px	    ground_marker_py	    ground_marker_pz	    ground_marker_px	    ground_marker_py	    ground_marker_pz	    ground_marker_px	    ground_marker_py	    ground_marker_pz	    ground_marker_px	    ground_marker_py	    ground_marker_pz	    ground_marker_px	    ground_marker_py	    ground_marker_pz	    ground_marker_px	    ground_marker_py	    ground_marker_pz	    ground_marker_px	    ground_marker_py	    ground_marker_pz	    ground_marker_px	    ground_marker_py	    ground_marker_pz	    ground_marker_px	    ground_marker_py	    ground_marker_pz	    ground_marker_px	    ground_marker_py	    ground_marker_pz	    ground_marker_px	    ground_marker_py	    ground_marker_pz	    ground_marker_px	    ground_marker_py	    ground_marker_pz	    ground_marker_px	    ground_marker_py	    ground_marker_pz	    ground_marker_px	    ground_marker_py	    ground_marker_pz	
          0.51666677	          1.68324518	          0.84427643	         -0.27593124	         -5.37642288	         -0.05668757	         -0.61788911	         33.14548492	          0.02613258	          8.07940483	        -28.36378670	          1.68790233	          0.00000000	          0.00000000	         -2.81157398	          4.98137379	         -1.91931963	         -1.97155929	          4.92074585	          0.00000000	          0.00000000	         -8.54060459	          3.71123576	         -1.75339091	          0.00000000	          0.00000000	          0.00000000	          1.87657739	          0.00000000	         -0.22911546	          9.85573955	        761.49881865	         24.75759542	          1.54815869	          0.00000000	         -0.30794891	          0.00000000	          0.00000000	          0.00000000	          0.00000000	         -3.36308203	          0.00000000	          1.57265019	          0.77112067	         -0.27805614	          1.55321026	          0.77514005	         -0.19912413	          1.55476594	          0.77449191	         -0.35474411	          1.73777282	          0.42460999	         -0.19599979	          1.50424480	          0.42566264	         -0.32306558	          1.73152375	          0.07208958	         -0.20441917	          1.43871105	          0.06340338	         -0.30076528	          1.68324518	          0.84427643	         -0.27593124	          1.68200135	          0.84479469	         -0.15150613	          1.68448913	          0.84375823	         -0.40035638	          1.44145930	          0.91987634	         -0.24358885	          1.43954909	          0.92060804	         -0.29867917	          1.74597156	          0.42955834	         -0.12514399	          1.50170255	          0.41956544	         -0.39425975	          1.73444211	          0.41836762	         -0.26345098	          1.49806094	          0.42238900	         -0.23954135	          1.72205460	          0.07136635	         -0.16710882	          1.42105246	          0.06442369	         -0.33608362	          1.73901403	          0.08243312	         -0.24089918	          1.43874788	          0.08190491	         -0.26018575	          1.49601853	          1.34723341	         -0.27379158	          1.61691356	          1.27388012	         -0.23196234	          1.62143123	          1.27813244	         -0.31412235	          1.60308743	          1.27187037	         -0.28628978	          1.65126526	          1.19604933	         -0.28641418	          1.81560898	          0.63909519	         -0.13641313	          1.71145296	          0.57180244	         -0.34716395	          1.76927018	          0.63928515	         -0.15323679	          1.66566801	          0.59488279	         -0.35400209	          1.78445792	          0.56390142	         -0.15793563	          1.63564086	          0.52832216	         -0.34631169	          1.81725657	          0.21393801	         -0.17286317	          1.43241918	          0.16647694	         -0.40932354	          1.77427030	          0.22134444	         -0.18465218	          1.43742931	          0.18107773	         -0.36332610	          1.83531868	          0.06233054	         -0.19389233	          1.53552508	          0.04541168	         -0.31583840	
          0.52500015	          1.68989599	          0.84350932	         -0.27605173	         -5.39999390	          0.01319166	         -0.31373754	         33.14452744	          0.07903343	          7.88851595	        -25.82000542	          0.34903359	          0.00000000	          0.00000000	         -3.23214912	          5.07210588	         -1.99342406	         -2.07560396	          5.17074108	          0.00000000	          0.00000000	         -8.44600201	          3.68943286	         -2.11279988	          0.00000000	          0.00000000	          0.00000000	          1.87691150	          0.00000000	         -0.22903694	         12.56355972	        766.66247776	         25.33818409	          1.54974585	          0.00000000	         -0.30782928	          0.00000000	          0.00000000	          0.00000000	          0.00000000	         -3.73567407	          0.00000000	          1.57927585	          0.77039182	         -0.27791148	          1.56019437	          0.77421474	         -0.19882442	          1.56101823	          0.77399409	         -0.35445121	          1.74428582	          0.42423123	         -0.19789909	          1.50797009	          0.42569569	         -0.32296568	          1.75401700	          0.07093622	         -0.20461103	          1.43903673	          0.06390703	         -0.30066943	          1.68989599	          0.84350932	         -0.27605173	          1.68923748	          0.84368563	         -0.15166874	          1.69055450	          0.84333295	         -0.40043473	          1.44821787	          0.91914386	         -0.24235673	          1.44599390	          0.92004323	         -0.29740503	          1.75264108	          0.42881349	         -0.12703697	          1.50493979	          0.41972217	         -0.39415121	          1.73787284	          0.41743255	         -0.26569471	          1.50341344	          0.42221355	         -0.23929170	          1.74460161	          0.06996790	         -0.16729264	          1.42129445	          0.06511392	         -0.33593988	          1.76202929	          0.08113551	         -0.24108952	          1.43872440	          0.08241408	         -0.25990456	          1.50237215	          1.34647965	         -0.27315924	          1.62331176	          1.27315128	         -0.23221274	          1.62790084	          1.27745295	         -0.31380615	          1.60950649	          1.27128160	         -0.28617397	          1.65773487	          1.19536531	         -0.28641638	          1.82189059	          0.63704050	         -0.13775128	          1.71622455	          0.57056457	         -0.34817138	          1.77523971	          0.63743168	         -0.15389287	          1.67042935	          0.59406048	         -0.35496843	          1.79013705	          0.56143910	         -0.15957353	          1.64067411	          0.52806544	         -0.34700519	          1.83359969	          0.21693499	         -0.17366788	          1.43341923	          0.16710347	         -0.40921637	          1.79037440	          0.22226703	         -0.18608150	          1.43833578	          0.18178633	         -0.36289197	          1.85832500	          0.06351211	         -0.19466490	          1.53573167	          0.04541410	         -0.31591287	
          0.53333348	          1.69662452	          0.84272492	         -0.27619350	         -5.41972542	          0.08146910	         -0.00237657	         33.11294174	          0.12635559	          7.64133739	        -23.39432526	         -1.04914129	          0.00000000	          0.00000000	         -3.63715267	          5.15179157	         -2.10123062	         -2.23100924	          5.44589043	          0.00000000	          0.00000000	         -8.24964333	          3.73776388	         -2.17936611	          0.00000000	          0.00000000	          0.00000000	          1.87748462	          0.00000000	         -0.22896957	         15.38879460	        772.30264025	         26.31822687	          1.55128149	          0.00000000	         -0.30771530	          0.00000000	          0.00000000	          0.00000000	          0.00000000	         -4.07067090	          0.00000000	          1.58598876	          0.76963848	         -0.27778661	          1.56727326	          0.77326041	         -0.19853243	          1.56734574	          0.77346969	         -0.35416138	          1.75069833	          0.42378885	         -0.19978727	          1.51190162	          0.42569429	         -0.32290766	          1.77565551	          0.07031856	         -0.20464854	          1.43937361	          0.06444413	         -0.30059943	          1.69662452	          0.84272492	         -0.27619350	          1.69656670	          0.84255779	         -0.15186353	          1.69668221	          0.84289211	         -0.40052345	          1.45508182	          0.91837174	         -0.24104621	          1.45252502	          0.91942996	         -0.29607156	          1.75915635	          0.42797366	         -0.12891275	          1.50833583	          0.41986662	         -0.39408046	          1.74162388	          0.41670579	         -0.26882839	          1.50898802	          0.42125961	         -0.23936175	          1.76630259	          0.06914482	         -0.16732031	          1.42155921	          0.06584536	         -0.33582634	          1.78406274	          0.08053965	         -0.24110682	          1.43852723	          0.08289280	         -0.25960171	          1.50843155	          1.34561515	         -0.27239743	          1.63018262	          1.27237546	         -0.23205020	          1.63445938	          1.27694666	         -0.31339970	          1.61596775	          1.27062380	         -0.28600791	          1.66470158	          1.19488955	         -0.28650454	          1.82808888	          0.63476229	         -0.13897905	          1.72113419	          0.56930047	         -0.34933382	          1.78141141	          0.63527232	         -0.15474419	          1.67539990	          0.59368187	         -0.35514060	          1.79577303	          0.55891109	         -0.16145410	          1.64525616	          0.52770966	         -0.34767893	          1.84921098	          0.22007792	         -0.17440756	          1.43451357	          0.16774081	         -0.40913707	          1.80568349	          0.22354007	         -0.18737081	          1.43913352	          0.18193473	         -0.36261123	          1.88040125	          0.06490591	         -0.19539231	          1.53595579	          0.04543849	         -0.31595838	
          0.54166681	          1.70342517	          0.84192860	         -0.27634877	         -5.43554306	          0.13881209	          0.31839937	         33.05615234	          0.17365403	          7.34070587	        -21.10510254	         -2.46423578	          0.00000000	          0.00000000	         -4.02660751	          5.20593977	         -2.23683357	         -2.43761659	          5.74378252	          0.00000000	          0.00000000	         -8.09954643	          4.08071899	         -2.28114772	          0.00000000	          0.00000000	          0.00000000	          1.87839246	          0.00000000	         -0.22894810	         18.41495986	        778.25897061	         27.69814030	          1.55273401	          0.00000000	         -0.30761478	          0.00000000	          0.00000000	          0.00000000	          0.00000000	         -4.34715625	          0.00000000	          1.59277701	          0.76886487	         -0.27763170	          1.57444823	          0.77229345	         -0.19821951	          1.57373607	          0.77291226	         -0.35384578	          1.75704718	          0.42331457	         -0.20163660	          1.51602685	          0.42564544	         -0.32289717	          1.79634035	          0.07018731	         -0.20454267	          1.43971729	          0.06501717	         -0.30057159	          1.70342517	          0.84192860	         -0.27634877	          1.70399380	          0.84143442	         -0.15207770	          1.70285642	          0.84242278	         -0.40061986	          1.46205771	          0.91756356	         -0.23965889	          1.45914638	          0.91877037	         -0.29468301	          1.76556551	          0.42707759	         -0.13074566	          1.51188278	          0.41999266	         -0.39405280	          1.74647462	          0.41492236	         -0.27127019	          1.51231289	          0.42306623	         -0.23853336	          1.78705561	          0.06884692	         -0.16720301	          1.42184305	          0.06662099	         -0.33575955	          1.80474317	          0.08059127	         -0.24097866	          1.44005370	          0.08357821	         -0.25977147	          1.51449537	          1.34477067	         -0.27188283	          1.63695788	          1.27139711	         -0.23164375	          1.64108467	          1.27665734	         -0.31333846	          1.62242210	          1.26989913	         -0.28577518	          1.67167425	          1.19449019	         -0.28696662	          1.83422852	          0.63230312	         -0.14010598	          1.72617245	          0.56800860	         -0.35063240	          1.78757513	          0.63281059	         -0.15613323	          1.68017936	          0.59254664	         -0.35695016	          1.80136025	          0.55612385	         -0.16310115	          1.64937019	          0.52655387	         -0.34840101	          1.86406398	          0.22331129	         -0.17508146	          1.43569887	          0.16840152	         -0.40910256	          1.82024765	          0.22487511	         -0.18825649	          1.44113529	          0.18260573	         -0.36294174	          1.90147269	          0.06649832	         -0.19604781	          1.53619051	          0.04548523	         -0.31598049	
